<?xml version="1.0" encoding="UTF-8" standalone="no"?>
<!-- Created with Inkscape (http://www.inkscape.org/) -->
<svg xmlns:inkscape="http://www.inkscape.org/namespaces/inkscape" xmlns:rdf="http://www.w3.org/1999/02/22-rdf-syntax-ns#" xmlns="http://www.w3.org/2000/svg" xmlns:xlink="http://www.w3.org/1999/xlink" xmlns:ns1="http://sozi.baierouge.fr" xmlns:cc="http://creativecommons.org/ns#" xmlns:sodipodi="http://sodipodi.sourceforge.net/DTD/sodipodi-0.dtd" xmlns:dc="http://purl.org/dc/elements/1.1/" id="svg2" xml:space="preserve" viewBox="0 0 111.45 138.2" version="1.1" inkscape:version="0.91 r13725">
  <defs id="defs6">
    <linearGradient id="linearGradient30" y2="56.421" gradientUnits="userSpaceOnUse" x2="-27.943" gradientTransform="matrix(.00472 .8 .8 -.00472 .00015124 110.56)" y1="56.421" x1="-57.593">
      <stop id="stop32" style="stop-color:#574a85" offset="0"/>
      <stop id="stop34" style="stop-color:#51457b" offset=".21180"/>
      <stop id="stop36" style="stop-color:#423860" offset=".57250"/>
      <stop id="stop38" style="stop-color:#2b2438" offset="1"/>
    </linearGradient>
    <linearGradient id="linearGradient54" y2="-67.709" gradientUnits="userSpaceOnUse" x2="-21.98" gradientTransform="matrix(-.3732 -.7076 -.7076 .3732 .00077171 110.56)" y1="-67.709" x1="-29.216">
      <stop id="stop56" style="stop-color:#21708a" offset="0"/>
      <stop id="stop58" style="stop-color:#226780" offset=".2"/>
      <stop id="stop60" style="stop-color:#254e65" offset=".54510"/>
      <stop id="stop62" style="stop-color:#2b263a" offset=".98430"/>
      <stop id="stop64" style="stop-color:#2b2438" offset="1"/>
    </linearGradient>
    <linearGradient id="linearGradient80" y2="8.0752" gradientUnits="userSpaceOnUse" x2="43.362" gradientTransform="matrix(.8 0 0 -.8 0 110.56)" y1="8.0752" x1="37.638">
      <stop id="stop82" style="stop-color:#054f96" offset="0"/>
      <stop id="stop84" style="stop-color:#094a8c" offset=".1804"/>
      <stop id="stop86" style="stop-color:#143e71" offset=".49020"/>
      <stop id="stop88" style="stop-color:#252a46" offset=".88630"/>
      <stop id="stop90" style="stop-color:#2b2438" offset="1"/>
    </linearGradient>
    <linearGradient id="linearGradient106" y2="-54.889" gradientUnits="userSpaceOnUse" x2="22.865" gradientTransform="matrix(-.00248 -.8 -.8 .00248 -.00028342 110.56)" y1="-54.889" x1="6.9897">
      <stop id="stop108" style="stop-color:#635a29" offset="0"/>
      <stop id="stop110" style="stop-color:#59502c" offset=".27060"/>
      <stop id="stop112" style="stop-color:#3e3733" offset=".72550"/>
      <stop id="stop114" style="stop-color:#2b2438" offset="1"/>
    </linearGradient>
    <linearGradient id="linearGradient128" y2="18.389" gradientUnits="userSpaceOnUse" x2="55.586" gradientTransform="matrix(.79992 .01064 .01064 -.79992 -.00011310 110.56)" y1="18.389" x1="36.735">
      <stop id="stop130" style="stop-color:#242224" offset="0"/>
      <stop id="stop132" style="stop-color:#27252e" offset=".2392"/>
      <stop id="stop134" style="stop-color:#302e49" offset=".63920"/>
      <stop id="stop136" style="stop-color:#3a3866" offset="1"/>
    </linearGradient>
    <linearGradient id="linearGradient152" y2="3.2329" gradientUnits="userSpaceOnUse" x2="55.303" gradientTransform="matrix(.76256 -.24184 -.24184 -.76256 .000010347 110.56)" y1="3.2329" x1="43.973">
      <stop id="stop154" style="stop-color:#242224" offset="0"/>
      <stop id="stop156" style="stop-color:#27252e" offset=".2392"/>
      <stop id="stop158" style="stop-color:#302e49" offset=".63920"/>
      <stop id="stop160" style="stop-color:#3a3866" offset="1"/>
    </linearGradient>
    <linearGradient id="linearGradient174" y2="18.684" gradientUnits="userSpaceOnUse" x2="74.085" gradientTransform="matrix(.79992 .01064 .01064 -.79992 -.00011310 110.56)" y1="18.684" x1="55.232">
      <stop id="stop176" style="stop-color:#242224" offset="0"/>
      <stop id="stop178" style="stop-color:#27252e" offset=".2392"/>
      <stop id="stop180" style="stop-color:#302e49" offset=".63920"/>
      <stop id="stop182" style="stop-color:#3a3866" offset="1"/>
    </linearGradient>
    <linearGradient id="linearGradient198" y2="21.817" gradientUnits="userSpaceOnUse" x2="70.172" gradientTransform="matrix(.79864 .04728 .04728 -.79864 -.0001308 110.56)" y1="21.817" x1="57.475">
      <stop id="stop200" style="stop-color:#242224" offset="0"/>
      <stop id="stop202" style="stop-color:#27252e" offset=".2392"/>
      <stop id="stop204" style="stop-color:#302e49" offset=".63920"/>
      <stop id="stop206" style="stop-color:#3a3866" offset="1"/>
    </linearGradient>
    <linearGradient id="linearGradient282" y2="85.604" gradientUnits="userSpaceOnUse" x2="-44.792" gradientTransform="matrix(.52336 .60504 .60504 -.52336 .00011954 110.56)" y1="85.604" x1="-66.079">
      <stop id="stop284" style="stop-color:#054f96" offset="0"/>
      <stop id="stop286" style="stop-color:#094a8c" offset=".1804"/>
      <stop id="stop288" style="stop-color:#143e71" offset=".49020"/>
      <stop id="stop290" style="stop-color:#252a46" offset=".88630"/>
      <stop id="stop292" style="stop-color:#2b2438" offset="1"/>
    </linearGradient>
    <linearGradient id="linearGradient306" y2="88.982" gradientUnits="userSpaceOnUse" x2="-12.867" gradientTransform="matrix(.68416 .41464 .41464 -.68416 -.00036931 110.56)" y1="88.982" x1="-43.446">
      <stop id="stop308" style="stop-color:#21708a" offset="0"/>
      <stop id="stop310" style="stop-color:#226780" offset=".2"/>
      <stop id="stop312" style="stop-color:#254e65" offset=".54510"/>
      <stop id="stop314" style="stop-color:#2b263a" offset=".98430"/>
      <stop id="stop316" style="stop-color:#2b2438" offset="1"/>
    </linearGradient>
    <linearGradient id="linearGradient330" y2="78.66" gradientUnits="userSpaceOnUse" x2="-59.69" gradientTransform="matrix(.38536 .70112 .70112 -.38536 -.00024488 110.56)" y1="78.66" x1="-90.157">
      <stop id="stop332" style="stop-color:#21708a" offset="0"/>
      <stop id="stop334" style="stop-color:#226780" offset=".2"/>
      <stop id="stop336" style="stop-color:#254e65" offset=".54510"/>
      <stop id="stop338" style="stop-color:#2b263a" offset=".98430"/>
      <stop id="stop340" style="stop-color:#2b2438" offset="1"/>
    </linearGradient>
    <linearGradient id="linearGradient354" y2="90.7" gradientUnits="userSpaceOnUse" x2="-42.35" gradientTransform="matrix(.6292 .49408 .49408 -.6292 .00016489 110.56)" y1="90.7" x1="-56.114">
      <stop id="stop356" style="stop-color:#433473" offset="0"/>
      <stop id="stop358" style="stop-color:#3f3169" offset=".2588"/>
      <stop id="stop360" style="stop-color:#342a4e" offset="0.698"/>
      <stop id="stop362" style="stop-color:#2b2438" offset="1"/>
    </linearGradient>
    <linearGradient id="linearGradient376" y2="93.975" gradientUnits="userSpaceOnUse" x2="-55.703" gradientTransform="matrix(.55144 .5796 .5796 -.55144 -.00012035 110.56)" y1="93.975" x1="-68.506">
      <stop id="stop378" style="stop-color:#433473" offset="0"/>
      <stop id="stop380" style="stop-color:#3f3169" offset=".2588"/>
      <stop id="stop382" style="stop-color:#342a4e" offset="0.698"/>
      <stop id="stop384" style="stop-color:#2b2438" offset="1"/>
    </linearGradient>
    <linearGradient id="linearGradient412" y2="104.93" gradientUnits="userSpaceOnUse" x2="75.614" gradientTransform="matrix(.8 0 0 -.8 0 110.56)" y1="88.828" x1="89.539">
      <stop id="stop414" style="stop-color:#054f96" offset="0"/>
      <stop id="stop416" style="stop-color:#094a8c" offset=".1804"/>
      <stop id="stop418" style="stop-color:#143e71" offset=".49020"/>
      <stop id="stop420" style="stop-color:#252a46" offset=".88630"/>
      <stop id="stop422" style="stop-color:#2b2438" offset="1"/>
    </linearGradient>
    <linearGradient id="linearGradient436" y2="96.495" gradientUnits="userSpaceOnUse" x2="75.38" gradientTransform="matrix(.8 0 0 -.8 0 110.56)" y1="80.646" x1="101.53">
      <stop id="stop438" style="stop-color:#21708a" offset="0"/>
      <stop id="stop440" style="stop-color:#226780" offset=".2"/>
      <stop id="stop442" style="stop-color:#254e65" offset=".54510"/>
      <stop id="stop444" style="stop-color:#2b263a" offset=".98430"/>
      <stop id="stop446" style="stop-color:#2b2438" offset="1"/>
    </linearGradient>
    <linearGradient id="linearGradient460" y2="101.72" gradientUnits="userSpaceOnUse" x2="63.48" gradientTransform="matrix(.8 0 0 -.8 0 110.56)" y1="101.07" x1="93.955">
      <stop id="stop462" style="stop-color:#21708a" offset="0"/>
      <stop id="stop464" style="stop-color:#226780" offset=".2"/>
      <stop id="stop466" style="stop-color:#254e65" offset=".54510"/>
      <stop id="stop468" style="stop-color:#2b263a" offset=".98430"/>
      <stop id="stop470" style="stop-color:#2b2438" offset="1"/>
    </linearGradient>
    <linearGradient id="linearGradient484" y2="103.02" gradientUnits="userSpaceOnUse" x2="87.281" gradientTransform="matrix(.8 0 0 -.8 0 110.56)" y1="94.518" x1="98.105">
      <stop id="stop486" style="stop-color:#433473" offset="0"/>
      <stop id="stop488" style="stop-color:#3f3169" offset=".2588"/>
      <stop id="stop490" style="stop-color:#342a4e" offset="0.698"/>
      <stop id="stop492" style="stop-color:#2b2438" offset="1"/>
    </linearGradient>
    <linearGradient id="linearGradient506" y2="111.57" gradientUnits="userSpaceOnUse" x2="79.921" gradientTransform="matrix(.8 0 0 -.8 0 110.56)" y1="102.3" x1="88.746">
      <stop id="stop508" style="stop-color:#433473" offset="0"/>
      <stop id="stop510" style="stop-color:#3f3169" offset=".2588"/>
      <stop id="stop512" style="stop-color:#342a4e" offset="0.698"/>
      <stop id="stop514" style="stop-color:#2b2438" offset="1"/>
    </linearGradient>
    <linearGradient id="linearGradient540" y2="57.207" gradientUnits="userSpaceOnUse" x2="-88.202" gradientTransform="matrix(.00488 .8 .8 -.00488 .00015282 110.56)" y1="57.207" x1="-129.1">
      <stop id="stop542" style="stop-color:#574a85" offset="0"/>
      <stop id="stop544" style="stop-color:#51457b" offset=".21180"/>
      <stop id="stop546" style="stop-color:#423860" offset=".57250"/>
      <stop id="stop548" style="stop-color:#2b2438" offset="1"/>
    </linearGradient>
    <linearGradient id="linearGradient564" y2="-97.986" gradientUnits="userSpaceOnUse" x2="23.253" gradientTransform="matrix(-.37296 -.70776 -.70776 .37296 -.000047826 110.56)" y1="-97.986" x1="13.277">
      <stop id="stop566" style="stop-color:#635a29" offset="0"/>
      <stop id="stop568" style="stop-color:#59502c" offset=".27060"/>
      <stop id="stop570" style="stop-color:#3e3733" offset=".72550"/>
      <stop id="stop572" style="stop-color:#2b2438" offset="1"/>
    </linearGradient>
    <linearGradient id="linearGradient588" y2="-4.8369" gradientUnits="userSpaceOnUse" x2="78.086" gradientTransform="matrix(.342 -.7232 -.7232 -.342 .00028148 110.56)" y1="-4.8369" x1="65.337">
      <stop id="stop590" style="stop-color:#433473" offset="0"/>
      <stop id="stop592" style="stop-color:#3f3169" offset=".2588"/>
      <stop id="stop594" style="stop-color:#342a4e" offset="0.698"/>
      <stop id="stop596" style="stop-color:#2b2438" offset="1"/>
    </linearGradient>
    <linearGradient id="linearGradient612" y2="-54.978" gradientUnits="userSpaceOnUse" x2="81.112" gradientTransform="matrix(-.00272 -.8 -.8 .00272 -.00026467 110.56)" y1="-54.978" x1="59.212">
      <stop id="stop614" style="stop-color:#054f96" offset="0"/>
      <stop id="stop616" style="stop-color:#094a8c" offset=".098"/>
      <stop id="stop618" style="stop-color:#212f50" offset=".7098"/>
      <stop id="stop620" style="stop-color:#2b2438" offset="1"/>
    </linearGradient>
    <linearGradient id="linearGradient634" y2="74.622" gradientUnits="userSpaceOnUse" x2="55.101" gradientTransform="matrix(.79992 .01072 .01072 -.79992 -.00017548 110.56)" y1="74.622" x1="29.049">
      <stop id="stop636" style="stop-color:#242224" offset="0"/>
      <stop id="stop638" style="stop-color:#27252e" offset=".2392"/>
      <stop id="stop640" style="stop-color:#302e49" offset=".63920"/>
      <stop id="stop642" style="stop-color:#3a3866" offset="1"/>
    </linearGradient>
    <linearGradient id="linearGradient658" y2="58.013" gradientUnits="userSpaceOnUse" x2="71.293" gradientTransform="matrix(.76272 -.24144 -.24144 -.76272 -.00010057 110.56)" y1="58.013" x1="55.638">
      <stop id="stop660" style="stop-color:#242224" offset="0"/>
      <stop id="stop662" style="stop-color:#27252e" offset=".2392"/>
      <stop id="stop664" style="stop-color:#302e49" offset=".63920"/>
      <stop id="stop666" style="stop-color:#3a3866" offset="1"/>
    </linearGradient>
    <linearGradient id="linearGradient680" y2="75.041" gradientUnits="userSpaceOnUse" x2="80.636" gradientTransform="matrix(.79992 .01072 .01072 -.79992 -.00017548 110.56)" y1="75.041" x1="54.584">
      <stop id="stop682" style="stop-color:#242224" offset="0"/>
      <stop id="stop684" style="stop-color:#27252e" offset=".2392"/>
      <stop id="stop686" style="stop-color:#302e49" offset=".63920"/>
      <stop id="stop688" style="stop-color:#3a3866" offset="1"/>
    </linearGradient>
    <linearGradient id="linearGradient704" y2="78.249" gradientUnits="userSpaceOnUse" x2="73.069" gradientTransform="matrix(.79864 .04672 .04672 -.79864 -.000035453 110.56)" y1="78.249" x1="55.514">
      <stop id="stop706" style="stop-color:#242224" offset="0"/>
      <stop id="stop708" style="stop-color:#27252e" offset=".2392"/>
      <stop id="stop710" style="stop-color:#302e49" offset=".63920"/>
      <stop id="stop712" style="stop-color:#3a3866" offset="1"/>
    </linearGradient>
  </defs>
  <g id="g10" transform="matrix(1.25 0 0 -1.25 0 138.2)">
    <g id="g12">
      <path id="path14" style="fill-rule:evenodd;fill:#054f96" d="m27.121 78.684c-0.266 3.254 0.266 6.867 1.598 10.84 0.668 1.972 1.359 3.625 2.082 4.961l5.039-4.16 1.441-27.243c-3.226 1.547-5.668 3.641-7.32 6.282-1.574 2.531-2.52 5.64-2.84 9.32z" inkscape:connector-curvature="0"/>
      <path id="path16" style="fill-rule:evenodd;fill:#2b2438" d="m26.922 80.442c-0.242 3.254 0.172 6.906 1.238 10.961 0.559 2.027 1.133 3.734 1.719 5.121l4.84-2.961 2-30.121c-5.785 2.402-9.051 8.066-9.797 17z" inkscape:connector-curvature="0"/>
      <path id="path18" style="fill-rule:evenodd;fill:#2b2438" d="m59.16 97.082 1.918-5.32c1.227-4.211 1.723-7.961 1.481-11.238-0.637-8.906-3.879-14.586-9.719-17.039l1.879 30.117 4.441 3.48z" inkscape:connector-curvature="0"/>
      <g id="g20">
        <g id="g22">
          <g id="g28">
            <path id="path40" style="fill-rule:evenodd;fill:url(#linearGradient30)" d="m33.238 91.282 22.082 0.679 0.481-2.359c0.586-2.078 1.586-4.465 3-7.16 1.148-2.133 1.719-4.399 1.719-6.801 0.027-2.453-0.559-4.598-1.758-6.438-1.387-2.187-2.801-3.761-4.242-4.718-2.348-1.575-5.493-2.403-9.442-2.481-3.41-0.082-6.383 0.571-8.918 1.957-2.215 1.227-3.945 2.922-5.199 5.082-1.199 2.106-1.734 4.532-1.602 7.282 0.082 2.023 0.453 3.863 1.121 5.519 1.227 3.117 2.055 5.625 2.481 7.52l0.277 1.918z" inkscape:connector-curvature="0"/>
          </g>
        </g>
      </g>
      <path id="path42" style="fill-rule:evenodd;fill:#2b2438" d="m51.48 105.36 1.598 0.519c1.231 0.481 2.254 1.027 3.082 1.641 1.442 1.039 2.305 2.051 2.602 3.039 0.476-1.145 0.824-2.508 1.039-4.078 0.426-3.176-0.055-5.883-1.442-8.121l-6.879 7z" inkscape:connector-curvature="0"/>
      <g id="g44">
        <g id="g46">
          <g id="g52">
            <path id="path66" style="fill-rule:evenodd;fill:url(#linearGradient54)" d="m54.68 103.2 0.601 0.321c0.508 0.293 1 0.679 1.481 1.16 1.039 1.094 1.613 2.105 1.718 3.039 0.321-0.746 0.547-1.629 0.68-2.641 0.293-2.05-0.012-3.8-0.918-5.238l-3.562 3.359z" inkscape:connector-curvature="0"/>
          </g>
        </g>
      </g>
      <path id="path68" style="fill-rule:evenodd;fill:#2b2438" d="m32.961 107.52c1.359-0.961 2.934-1.641 4.719-2.039l-6.68-7.155c-1.441 2.183-2 4.863-1.68 8.039 0.188 1.597 0.508 2.972 0.961 4.121l0.52-0.922c0.531-0.719 1.254-1.399 2.16-2.039z" inkscape:connector-curvature="0"/>
      <g id="g70">
        <g id="g72">
          <g id="g78">
            <path id="path92" style="fill-rule:evenodd;fill:url(#linearGradient80)" d="m32.602 105.04c0.773-0.746 1.464-1.226 2.078-1.441l-3.442-3.438c-0.933 1.411-1.293 3.145-1.078 5.2 0.106 1.039 0.305 1.933 0.602 2.679l0.316-0.922c0.32-0.718 0.828-1.414 1.524-2.078z" inkscape:connector-curvature="0"/>
          </g>
        </g>
      </g>
      <path id="path94" style="fill-rule:evenodd;fill:#21708a" d="m32.398 101.96 3.161 2.442c2.722 1.652 5.64 2.48 8.761 2.48 3.305-0.027 6.215-0.719 8.719-2.082 1.227-0.691 2.133-1.371 2.719-2.039l-11.238-6.557-12.122 5.757z" inkscape:connector-curvature="0"/>
      <g id="g96">
        <g id="g98">
          <g id="g104">
            <path id="path116" style="fill-rule:evenodd;fill:url(#linearGradient106)" d="m33.121 100.2 2.918 2.438c2.508 1.656 5.188 2.48 8.039 2.48 3.07-0.027 5.75-0.718 8.043-2.078 1.145-0.695 1.984-1.386 2.52-2.082l-10.36-6.519-11.16 5.761z" inkscape:connector-curvature="0"/>
          </g>
        </g>
      </g>
      <g id="g118">
        <g id="g120">
          <g id="g126">
            <path id="path138" style="fill-rule:evenodd;fill:url(#linearGradient128)" d="m44.68 96.442c0.027-2.078-0.692-3.867-2.16-5.36-1.442-1.492-3.215-2.254-5.321-2.281-2.078-0.051-3.867 0.656-5.359 2.121-1.465 1.469-2.227 3.242-2.281 5.321-0.028 2.082 0.695 3.867 2.16 5.359 1.441 1.496 3.203 2.254 5.281 2.281s3.879-0.68 5.398-2.121c1.497-1.465 2.254-3.238 2.282-5.32z" inkscape:connector-curvature="0"/>
          </g>
        </g>
      </g>
      <path id="path140" style="fill-rule:evenodd;fill:#dce6e6" d="m41.641 96.485c0.027-1.227-0.387-2.282-1.243-3.16-0.851-0.883-1.89-1.336-3.117-1.364-1.226-0.023-2.281 0.387-3.16 1.242-0.883 0.852-1.336 1.907-1.359 3.161-0.028 1.226 0.383 2.265 1.238 3.121 0.879 0.879 1.934 1.332 3.16 1.359 1.227 0.024 2.281-0.387 3.16-1.242 0.879-0.852 1.321-1.895 1.321-3.117z" inkscape:connector-curvature="0"/>
      <g id="g142">
        <g id="g144">
          <g id="g150">
            <path id="path162" style="fill-rule:evenodd;fill:url(#linearGradient152)" d="m41.559 95.883c0.296-0.746-0.266-1.242-1.68-1.48-1.465-0.239-2.867 0.015-4.199 0.761-1.172 0.637-1.973 1.371-2.399 2.2l-0.281 1c0.613-1.121 1.453-1.801 2.52-2.039 0.695-0.161 1.625-0.137 2.8 0.078 1.094 0.187 1.907 0.199 2.442 0.039 0.426-0.106 0.691-0.293 0.797-0.559z" inkscape:connector-curvature="0"/>
          </g>
        </g>
      </g>
      <g id="g164">
        <g id="g166">
          <g id="g172">
            <path id="path184" style="fill-rule:evenodd;fill:url(#linearGradient174)" d="m59.441 96.403c0.051-2.078-0.652-3.868-2.121-5.36-1.465-1.492-3.242-2.254-5.32-2.281s-3.867 0.695-5.359 2.16c-1.493 1.442-2.254 3.199-2.282 5.281-0.023 2.079 0.696 3.868 2.161 5.36 1.441 1.492 3.203 2.254 5.281 2.281 2.078 0.024 3.867-0.68 5.359-2.121 1.492-1.465 2.254-3.238 2.281-5.32z" inkscape:connector-curvature="0"/>
          </g>
        </g>
      </g>
      <path id="path186" style="fill-rule:evenodd;fill:#dce6e6" d="m56.441 96.442c0.024-1.227-0.386-2.278-1.242-3.16-0.851-0.879-1.89-1.332-3.121-1.36-1.223-0.027-2.277 0.387-3.156 1.242-0.883 0.852-1.336 1.907-1.36 3.161-0.027 1.226 0.383 2.277 1.239 3.16 0.879 0.879 1.933 1.316 3.16 1.316 1.227 0.027 2.281-0.383 3.16-1.238 0.852-0.856 1.293-1.895 1.32-3.121z" inkscape:connector-curvature="0"/>
      <g id="g188">
        <g id="g190">
          <g id="g196">
            <path id="path208" style="fill-rule:evenodd;fill:url(#linearGradient198)" d="m47.719 95.602c0.133 0.293 0.402 0.496 0.801 0.601 0.535 0.188 1.347 0.2 2.441 0.04 1.172-0.188 2.105-0.188 2.801 0 1.066 0.265 1.879 0.96 2.437 2.082 0.028-0.27-0.051-0.618-0.238-1.043-0.402-0.797-1.176-1.532-2.32-2.2-1.309-0.773-2.696-1.066-4.161-0.879-1.441 0.188-2.027 0.653-1.761 1.399z" inkscape:connector-curvature="0"/>
          </g>
        </g>
      </g>
      <path id="path210" style="fill-rule:evenodd;fill:#a49dbd" d="m44.48 94.961c0.133-0.906 0.532-1.84 1.2-2.797 0.347-0.507 0.668-0.906 0.961-1.203l-2.121-3.558-2.161 3.519c1.039 1.016 1.746 2.36 2.121 4.039z" inkscape:connector-curvature="0"/>
      <path id="path212" style="fill-rule:evenodd;fill:#2b2438" d="m44.48 95.203 0.04-7.8-2.161 3.519c1.039 1.121 1.746 2.547 2.121 4.281z" inkscape:connector-curvature="0"/>
      <path id="path214" style="fill-rule:evenodd;fill:#635a29" d="m44 92.524c0.215-0.696 0.188-1.055-0.078-1.082-0.16 0-0.215 0.16-0.16 0.48 0.05 0.321 0.133 0.52 0.238 0.602z" inkscape:connector-curvature="0"/>
      <path id="path216" style="fill-rule:evenodd;fill:#2b2438" d="m45 92.524c0.293-0.696 0.293-1.039 0-1.039-0.133-0.028-0.188 0.133-0.16 0.476 0.027 0.321 0.082 0.508 0.16 0.563z" inkscape:connector-curvature="0"/>
      <path id="path218" style="fill-rule:evenodd;fill:#a49dbd" d="m34.559 87.485c0.562-1.282 1.453-1.934 2.679-1.961 1.254-0.028 2.254 0.625 3 1.961-0.664-2.082-1.652-3.121-2.957-3.121-1.281 0-2.187 1.039-2.722 3.121z" inkscape:connector-curvature="0"/>
      <path id="path220" style="fill-rule:evenodd;fill:#a49dbd" d="m48.359 79.563c0.586-1.172 1.481-1.774 2.68-1.801 1.254-0.027 2.27 0.586 3.039 1.84-0.691-1.945-1.68-2.918-2.957-2.918-1.309 0-2.226 0.957-2.762 2.879z" inkscape:connector-curvature="0"/>
      <path id="path222" style="fill-rule:evenodd;fill:#a49dbd" d="m36.359 67.325c0.403-0.801 1-1.215 1.801-1.243 0.852-0.027 1.535 0.387 2.039 1.243-0.453-1.309-1.121-1.961-2-1.961-0.851 0-1.465 0.652-1.84 1.961z" inkscape:connector-curvature="0"/>
      <path id="path224" style="fill-rule:evenodd;fill:#a49dbd" d="m33.922 71.004c-1.281 0-2.188 0.957-2.723 2.879 0.563-1.176 1.453-1.773 2.68-1.801 1.254-0.027 2.254 0.575 3 1.801-0.664-1.922-1.652-2.879-2.957-2.879z" inkscape:connector-curvature="0"/>
      <path id="path226" style="fill-rule:evenodd;fill:#887fab" d="m48.199 87.403c0.563-1.332 1.481-2.012 2.762-2.039 1.277-0.028 2.305 0.664 3.078 2.078-0.691-2.184-1.707-3.278-3.039-3.278s-2.266 1.079-2.801 3.239z" inkscape:connector-curvature="0"/>
      <path id="path228" style="fill-rule:evenodd;fill:#887fab" d="m41.719 75.325c0.586-1.336 1.508-2.016 2.761-2.043 1.309-0.051 2.348 0.64 3.122 2.082-0.723-2.215-1.735-3.309-3.043-3.282-1.332 0-2.278 1.082-2.84 3.243z" inkscape:connector-curvature="0"/>
      <path id="path230" style="fill-rule:evenodd;fill:#887fab" d="m33.359 81.082c-0.718 0-1.226 0.602-1.519 1.801 0.32-0.746 0.812-1.133 1.48-1.16 0.719 0 1.282 0.387 1.68 1.16-0.375-1.199-0.922-1.801-1.641-1.801z" inkscape:connector-curvature="0"/>
      <path id="path232" style="fill-rule:evenodd;fill:#887fab" d="m51.52 68.442c0.425-0.957 1.105-1.453 2.039-1.481 0.961-0.023 1.718 0.469 2.281 1.481-0.508-1.574-1.254-2.36-2.238-2.36-0.961 0.028-1.657 0.813-2.082 2.36z" inkscape:connector-curvature="0"/>
      <path id="path234" style="fill-rule:evenodd;fill:#887fab" d="m55.961 77.801c0.348-0.746 0.906-1.117 1.68-1.117 0.8 0 1.437 0.387 1.918 1.16-0.426-1.226-1.051-1.84-1.879-1.84-0.801 0-1.371 0.598-1.719 1.797z" inkscape:connector-curvature="0"/>
      <path id="path236" style="fill-rule:evenodd;fill:#433473" d="m40.762 84.801c0.664-1.519 1.746-2.293 3.238-2.316 1.52-0.028 2.746 0.758 3.68 2.359-0.825-2.508-2.028-3.762-3.602-3.762-1.543 0.028-2.652 1.266-3.316 3.719z" inkscape:connector-curvature="0"/>
      <path id="path238" style="fill-rule:evenodd;fill:#433473" d="m41.68 68.844c0.668-1.496 1.746-2.269 3.242-2.32 1.543-0.028 2.769 0.758 3.68 2.359-0.829-2.48-2.028-3.719-3.602-3.719-1.574 0.024-2.68 1.254-3.32 3.68z" inkscape:connector-curvature="0"/>
      <path id="path240" style="fill-rule:evenodd;fill:#433473" d="m34.199 79.403c0.668-1.282 1.707-1.934 3.121-1.961 1.442-0.024 2.602 0.64 3.481 2-0.801-2.133-1.946-3.199-3.442-3.199-1.492 0-2.547 1.054-3.16 3.16z" inkscape:connector-curvature="0"/>
      <path id="path242" style="fill-rule:evenodd;fill:#433473" d="m57.398 73.922c-0.773-2.371-1.863-3.558-3.277-3.558-1.414 0.027-2.43 1.211-3.043 3.558 0.613-1.437 1.602-2.187 2.961-2.238 1.387-0.027 2.508 0.719 3.359 2.238z" inkscape:connector-curvature="0"/>
      <path id="path244" style="fill-rule:evenodd;fill:#433473" d="m53.641 84.282c0.425-0.719 0.972-1.039 1.64-0.957 0.692 0.078 1.184 0.558 1.481 1.437-0.188-1.305-0.641-2.012-1.36-2.121-0.695-0.106-1.281 0.441-1.761 1.641z" inkscape:connector-curvature="0"/>
      <path id="path246" style="fill-rule:evenodd;fill:#2b2438" d="m39.762 65.364c0.558-0.028 1-0.496 1.316-1.403 0.297-0.879 0.387-1.89 0.281-3.039-0.105-1.066-0.398-1.531-0.879-1.398-0.48 0.105-0.949 0.691-1.402 1.758-0.426 1.066-0.586 2.015-0.476 2.839 0.132 0.856 0.519 1.27 1.16 1.243z" inkscape:connector-curvature="0"/>
      <path id="path248" style="fill-rule:evenodd;fill:#2b2438" d="m37.52 64.883c0.558 0.055 1.066-0.359 1.519-1.242 0.402-0.824 0.629-1.813 0.68-2.957 0.027-1.066-0.199-1.574-0.68-1.52-0.48 0.024-1.012 0.543-1.598 1.559-0.562 1.012-0.839 1.934-0.839 2.762 0 0.879 0.304 1.343 0.918 1.398z" inkscape:connector-curvature="0"/>
      <path id="path250" style="fill-rule:evenodd;fill:#2b2438" d="m42.359 65.442c0.563-0.133 0.895-0.692 1-1.68 0.106-0.906-0.011-1.906-0.359-3-0.32-1.012-0.707-1.414-1.16-1.199-0.426 0.187-0.746 0.855-0.961 2-0.211 1.144-0.172 2.105 0.121 2.879 0.293 0.828 0.746 1.16 1.359 1z" inkscape:connector-curvature="0"/>
      <path id="path252" style="fill-rule:evenodd;fill:#2b2438" d="m51.48 65.485c0.532-0.188 0.829-0.762 0.879-1.723 0.028-0.934-0.171-1.934-0.597-3-0.403-0.984-0.817-1.344-1.242-1.078-0.426 0.238-0.708 0.934-0.84 2.078-0.106 1.148 0.015 2.106 0.359 2.879 0.375 0.777 0.856 1.055 1.441 0.844z" inkscape:connector-curvature="0"/>
      <path id="path254" style="fill-rule:evenodd;fill:#2b2438" d="m49.238 65.641c0.535-0.106 0.883-0.637 1.043-1.598 0.16-0.933 0.106-1.949-0.16-3.039-0.242-1.043-0.601-1.469-1.082-1.281-0.453 0.187-0.812 0.84-1.078 1.961-0.27 1.117-0.281 2.078-0.039 2.879 0.266 0.828 0.703 1.187 1.316 1.078z" inkscape:connector-curvature="0"/>
      <path id="path256" style="fill-rule:evenodd;fill:#2b2438" d="m54.039 65.004c0.481-0.297 0.641-0.922 0.481-1.883-0.184-0.906-0.598-1.824-1.239-2.757-0.586-0.879-1.066-1.161-1.441-0.84-0.375 0.32-0.492 1.066-0.36 2.238 0.133 1.148 0.454 2.055 0.961 2.723 0.532 0.664 1.067 0.84 1.598 0.519z" inkscape:connector-curvature="0"/>
      <path id="path258" style="fill-rule:evenodd;fill:#21708a" d="m42.84 64.844c0.453-0.883 0.547-1.894 0.281-3.043-0.133-0.586-0.309-1.078-0.519-1.476 0.265 0.636 0.238 1.703-0.082 3.199-0.161 0.586-0.188 1.027-0.079 1.32 0.106 0.32 0.239 0.32 0.399 0z" inkscape:connector-curvature="0"/>
      <path id="path260" style="fill-rule:evenodd;fill:#054f96" d="m54.238 64.082c0.11-0.984-0.16-1.984-0.797-3-0.32-0.507-0.652-0.906-1-1.199 0.481 0.508 0.825 1.52 1.039 3.039 0.055 0.586 0.188 1.016 0.399 1.281 0.215 0.266 0.336 0.227 0.359-0.121z" inkscape:connector-curvature="0"/>
      <path id="path262" style="fill-rule:evenodd;fill:#054f96" d="m40.199 64.844c0.586-0.773 0.856-1.762 0.801-2.961-0.027-0.613-0.105-1.133-0.238-1.558 0.183 0.824-0.028 1.863-0.641 3.117-0.266 0.562-0.375 1.015-0.32 1.359 0.054 0.32 0.187 0.336 0.398 0.043z" inkscape:connector-curvature="0"/>
      <path id="path264" style="fill-rule:evenodd;fill:#433473" d="m51.84 64.723c0.375-0.906 0.387-1.934 0.039-3.082-0.184-0.559-0.399-1.039-0.641-1.438 0.403 0.801 0.453 1.868 0.16 3.2-0.105 0.613-0.089 1.066 0.043 1.359 0.133 0.293 0.266 0.281 0.399-0.039z" inkscape:connector-curvature="0"/>
      <path id="path266" style="fill-rule:evenodd;fill:#433473" d="m38.121 64.325c0.719-0.696 1.16-1.629 1.32-2.801 0.079-0.586 0.079-1.106 0-1.563 0.028 0.856-0.363 1.84-1.16 2.961-0.347 0.508-0.519 0.922-0.519 1.242 0 0.321 0.117 0.371 0.359 0.161z" inkscape:connector-curvature="0"/>
      <path id="path268" style="fill-rule:evenodd;fill:#635a29" d="m49.801 64.801c0.426-0.879 0.508-1.891 0.238-3.039-0.133-0.586-0.316-1.078-0.559-1.48 0.348 0.773 0.332 1.839-0.039 3.203-0.132 0.586-0.148 1.023-0.043 1.316 0.11 0.297 0.243 0.297 0.403 0z" inkscape:connector-curvature="0"/>
      <path id="path270" style="fill-rule:evenodd;fill:#2b2438" d="m3.16 32.602c0.668 0.187 1.68 0.586 3.039 1.199 2.696 1.227 5.762 2.895 9.199 5 3.364 2.055 6.016 4.43 7.961 7.121l1.922 3.442 7.438-8.282-2.918-28.519c-8.293 1.039-15.227 4.691-20.801 10.961-1.734 1.945-3.227 4.039-4.48 6.277l-1.36 2.801z" inkscape:connector-curvature="0"/>
      <g id="g272">
        <g id="g274">
          <g id="g280">
            <path id="path294" style="fill-rule:evenodd;fill:url(#linearGradient282)" d="m27.441 42.844 4.399-3.519c-1.707-3.973-4.453-7.547-8.238-10.723-3.254-2.719-5.696-4.09-7.321-4.117-1.066-0.028-1.48 0.304-1.242 1 0.32 0.957 1.883 2.758 4.68 5.398 2.586 2.453 4.656 5.188 6.203 8.203l1.519 3.758z" inkscape:connector-curvature="0"/>
          </g>
        </g>
      </g>
      <g id="g296">
        <g id="g298">
          <g id="g304">
            <path id="path318" style="fill-rule:evenodd;fill:url(#linearGradient306)" d="m25.199 47.043 3.442-4.32c-2.536-3.438-5.946-6.32-10.243-8.641-3.73-2-6.359-2.839-7.878-2.519-1.04 0.187-1.36 0.613-0.961 1.281 0.562 0.934 2.453 2.414 5.679 4.441 2.989 1.868 5.551 4.051 7.684 6.559l2.277 3.199z" inkscape:connector-curvature="0"/>
          </g>
        </g>
      </g>
      <g id="g320">
        <g id="g322">
          <g id="g328">
            <path id="path342" style="fill-rule:evenodd;fill:url(#linearGradient330)" d="m28 35.282 0.359 3.961 5.161-2c-0.481-4.215-2.051-8.36-4.719-12.442-2.266-3.492-4.176-5.492-5.723-6-0.984-0.316-1.465-0.133-1.437 0.563 0.027 1.011 0.972 3.171 2.839 6.476 1.758 3.043 2.934 6.188 3.52 9.442z" inkscape:connector-curvature="0"/>
          </g>
        </g>
      </g>
      <g id="g344">
        <g id="g346">
          <g id="g352">
            <path id="path364" style="fill-rule:evenodd;fill:url(#linearGradient354)" d="m8.602 30.442c0.718-0.453 1.863-0.559 3.437-0.317 3.149 0.477 6.867 2.45 11.16 5.918l-5.199-4.961c-3.387-3.597-4.855-6.093-4.398-7.48-0.989-0.16-2.762 0.094-5.321 0.762-0.32 1.785-0.215 3.812 0.321 6.078z" inkscape:connector-curvature="0"/>
          </g>
        </g>
      </g>
      <g id="g366">
        <g id="g368">
          <g id="g374">
            <path id="path386" style="fill-rule:evenodd;fill:url(#linearGradient376)" d="m14.238 22.961c0.828-0.238 2-0.066 3.524 0.524 3.066 1.172 6.41 3.851 10.039 8.039l-4.481-5.641c-2.695-4.082-3.386-6.933-2.082-8.558-1.57-0.028-3.558 0.199-5.957 0.679-0.215 0.239-0.414 0.625-0.601 1.16-0.375 1.09-0.52 2.36-0.442 3.797z" inkscape:connector-curvature="0"/>
          </g>
        </g>
      </g>
      <path id="path388" style="fill-rule:evenodd;fill:#433473" d="m21.762 17.203c0.906 0 2.023 0.508 3.359 1.52 2.641 2.027 4.984 5.602 7.039 10.719l-2.121-6.879c-1.199-4.801-1.25-7.695-0.16-8.68l-4.238-0.64c-0.403 0.105-0.868 0.359-1.403 0.757-1.039 0.778-1.863 1.84-2.476 3.2v0.003z" inkscape:connector-curvature="0"/>
      <path id="path390" style="fill-rule:evenodd;fill:#433473" d="m4.199 31.961-1.039 0.641c1.762 0.613 4.746 2 8.961 4.16-2.16-1.332-3.48-2.664-3.961-4-0.215-0.641-0.226-1.16-0.039-1.559-1.574 0.079-2.883 0.332-3.922 0.758z" inkscape:connector-curvature="0"/>
      <path id="path392" style="fill-rule:evenodd;fill:#887fab" d="m5.762 28.364c1.011-1.629 3-4.176 5.957-7.641-0.586-0.215-1.25-0.32-2-0.32-1.52 0.054-2.707 0.679-3.559 1.882-0.773 1.118-1.066 2.465-0.879 4.04l0.481 2.039z" inkscape:connector-curvature="0"/>
      <path id="path394" style="fill-rule:evenodd;fill:#887fab" d="m5.762 28.164c-0.668 0-1.414 0.133-2.242 0.399-1.653 0.504-2.825 1.414-3.52 2.719 1.547 0.586 2.602 1.027 3.16 1.32 0.852-1.731 1.719-3.215 2.602-4.438z" inkscape:connector-curvature="0"/>
      <path id="path396" style="fill-rule:evenodd;fill:#887fab" d="m11.719 20.801c1.629-1.492 3.414-2.797 5.359-3.918 0.988-0.586 1.817-1.012 2.481-1.281-0.504-0.453-1.145-0.824-1.918-1.117-1.52-0.563-2.934-0.43-4.243 0.398-1.144 0.719-1.773 1.918-1.878 3.602l0.199 2.316z" inkscape:connector-curvature="0"/>
      <path id="path398" style="fill-rule:evenodd;fill:#887fab" d="m19.398 15.723c1.497-0.961 3.457-1.695 5.883-2.199 1.227-0.27 2.305-0.426 3.239-0.481l-1.399-1.718c-1.254-1.043-2.652-1.375-4.199-1-1.336 0.316-2.32 1.316-2.961 3l-0.563 2.398z" inkscape:connector-curvature="0"/>
      <path id="path400" style="fill-rule:evenodd;fill:#2b2438" d="m85.961 33.723c-1.039-2.961-2.906-6.039-5.602-9.238-5.386-6.43-12.214-10.27-20.48-11.524l-3.68 28.442 7.199 8.48 2.04-3.398c2.027-2.641 4.734-4.934 8.121-6.883 3.492-2.027 6.613-3.613 9.359-4.758 1.363-0.59 2.375-0.961 3.043-1.121z" inkscape:connector-curvature="0"/>
      <g id="g402">
        <g id="g404">
          <g id="g410">
            <path id="path424" style="fill-rule:evenodd;fill:url(#linearGradient412)" d="m61.398 43.325 1.641-3.762c1.629-2.961 3.762-5.625 6.402-8 2.852-2.559 4.465-4.32 4.84-5.281 0.239-0.692-0.176-1.039-1.242-1.039-1.625-0.028-4.078 1.265-7.359 3.878-3.868 3.094-6.719 6.602-8.559 10.52l4.277 3.684z" inkscape:connector-curvature="0"/>
          </g>
        </g>
      </g>
      <g id="g426">
        <g id="g428">
          <g id="g434">
            <path id="path448" style="fill-rule:evenodd;fill:url(#linearGradient436)" d="m70.68 34.801c-4.348 2.188-7.84 4.961-10.481 8.32l3.36 4.403 2.363-3.121c2.211-2.453 4.84-4.575 7.879-6.36 3.254-1.918 5.172-3.332 5.758-4.242 0.402-0.664 0.093-1.105-0.918-1.316-1.52-0.375-4.176 0.398-7.961 2.316z" inkscape:connector-curvature="0"/>
          </g>
        </g>
      </g>
      <g id="g450">
        <g id="g452">
          <g id="g458">
            <path id="path472" style="fill-rule:evenodd;fill:url(#linearGradient460)" d="m60.602 39.684 0.476-3.961c0.668-3.254 1.922-6.375 3.762-9.359 1.972-3.254 2.988-5.375 3.039-6.36 0.027-0.719-0.465-0.922-1.481-0.601-1.546 0.453-3.492 2.398-5.839 5.84-2.774 4-4.465 8.109-5.079 12.32l5.122 2.121z" inkscape:connector-curvature="0"/>
          </g>
        </g>
      </g>
      <g id="g474">
        <g id="g476">
          <g id="g482">
            <path id="path494" style="fill-rule:evenodd;fill:url(#linearGradient484)" d="m71.199 31.801-5.359 4.84c4.375-3.356 8.148-5.238 11.32-5.637 1.574-0.215 2.707-0.082 3.399 0.399 0.613-2.266 0.789-4.282 0.519-6.039-1.598-0.481-2.957-0.774-4.078-0.879l-1.242-0.043c0.43 1.418-1.09 3.863-4.559 7.359z" inkscape:connector-curvature="0"/>
          </g>
        </g>
      </g>
      <g id="g496">
        <g id="g498">
          <g id="g504">
            <path id="path516" style="fill-rule:evenodd;fill:url(#linearGradient506)" d="m75.16 23.762c0.106-1.437-0.015-2.707-0.359-3.801-0.188-0.558-0.375-0.957-0.563-1.199-1.492-0.348-2.929-0.586-4.316-0.719l-1.602-0.082c1.282 1.657 0.508 4.481-2.32 8.481l-4.641 5.519c3.707-4.078 7.121-6.664 10.243-7.758 1.57-0.562 2.757-0.707 3.558-0.441z" inkscape:connector-curvature="0"/>
          </g>
        </g>
      </g>
      <path id="path518" style="fill-rule:evenodd;fill:#433473" d="m64 13.762-4.238 0.52c1.066 1.043 0.945 3.933-0.364 8.679l-2.32 6.84c2.16-5.09 4.59-8.613 7.281-10.558 1.364-0.985 2.496-1.454 3.403-1.399-0.563-1.387-1.348-2.48-2.36-3.281-0.535-0.399-1.004-0.668-1.402-0.801z" inkscape:connector-curvature="0"/>
      <path id="path520" style="fill-rule:evenodd;fill:#433473" d="m81.039 32.164c0.188 0.399 0.16 0.934-0.078 1.598-0.508 1.309-1.867 2.586-4.082 3.84l3.559-1.641c2.589-1.144 4.429-1.89 5.523-2.238-0.188-0.215-0.535-0.441-1.043-0.68-1.012-0.453-2.305-0.746-3.879-0.879z" inkscape:connector-curvature="0"/>
      <path id="path522" style="fill-rule:evenodd;fill:#887fab" d="m83.48 29.403 0.559-2c0.215-1.575-0.051-2.934-0.801-4.078-0.824-1.227-1.984-1.883-3.476-1.961l-2.043 0.238c2.855 3.547 4.773 6.148 5.761 7.801z" inkscape:connector-curvature="0"/>
      <path id="path524" style="fill-rule:evenodd;fill:#887fab" d="m89.16 32.485c-0.668-1.309-1.812-2.254-3.441-2.844l-2.239-0.438c0.852 1.25 1.68 2.758 2.481 4.52l0.719-0.32c0.668-0.293 1.492-0.602 2.48-0.918z" inkscape:connector-curvature="0"/>
      <path id="path526" style="fill-rule:evenodd;fill:#887fab" d="m77.719 21.684 0.281-2.281c-0.055-1.68-0.652-2.907-1.801-3.68-1.254-0.883-2.652-1.055-4.199-0.52l-1.961 1.079c0.668 0.293 1.481 0.734 2.441 1.32 1.918 1.199 3.668 2.558 5.239 4.082z" inkscape:connector-curvature="0"/>
      <path id="path528" style="fill-rule:evenodd;fill:#887fab" d="m64.359 14.043c2.426 0.559 4.375 1.348 5.84 2.36l-0.519-2.442c-0.614-1.679-1.575-2.691-2.879-3.039-1.52-0.426-2.922-0.121-4.199 0.918l-1.442 1.645 3.199 0.558z" inkscape:connector-curvature="0"/>
      <g id="g530">
        <g id="g532">
          <g id="g538">
            <path id="path550" style="fill-rule:evenodd;fill:url(#linearGradient540)" d="m28.762 41.684 0.359 2.641 30.481 0.918l0.636-3.243c0.828-2.879 2.215-6.172 4.16-9.879 1.575-2.961 2.364-6.093 2.364-9.398 0-3.387-0.817-6.348-2.442-8.883-1.949-3.012-3.906-5.172-5.882-6.48-3.227-2.16-7.559-3.305-13-3.438-4.719-0.109-8.825 0.801-12.317 2.719-3.066 1.707-5.453 4.055-7.16 7.039-1.656 2.883-2.402 6.227-2.242 10.043 0.133 2.719 0.652 5.238 1.558 7.559 1.711 4.32 2.868 7.789 3.485 10.402z" inkscape:connector-curvature="0"/>
          </g>
        </g>
      </g>
      <path id="path552" style="fill-rule:evenodd;fill:#2b2438" d="m54.281 63.801c2.453 0.59 4.614 1.563 6.481 2.922 1.226 0.906 2.172 1.879 2.84 2.918 0.347 0.508 0.574 0.934 0.679 1.281l1.481-5.64c0.586-4.344-0.071-8.067-1.961-11.161l-9.52 9.68z" inkscape:connector-curvature="0"/>
      <g id="g554">
        <g id="g556">
          <g id="g562">
            <path id="path574" style="fill-rule:evenodd;fill:url(#linearGradient564)" d="m58.68 60.762c0.882 0.293 1.828 0.973 2.84 2.039 0.933 0.961 1.628 1.949 2.082 2.961l0.359 1.242 0.918-3.64c0.375-2.829-0.051-5.227-1.277-7.2l-4.922 4.598z" inkscape:connector-curvature="0"/>
          </g>
        </g>
      </g>
      <path id="path576" style="fill-rule:evenodd;fill:#2b2438" d="m26 54.043c-1.973 3.039-2.734 6.746-2.281 11.121l1.32 5.68 0.723-1.281c0.718-1.039 1.703-1.988 2.957-2.84 1.894-1.305 4.066-2.227 6.519-2.762l-9.238-9.918z" inkscape:connector-curvature="0"/>
      <g id="g578">
        <g id="g580">
          <g id="g586">
            <path id="path598" style="fill-rule:evenodd;fill:url(#linearGradient588)" d="m31.121 61.364-4.801-4.762c-1.281 1.949-1.761 4.336-1.441 7.16l0.84 3.68 0.402-1.239c0.453-1.015 1.145-1.972 2.078-2.878 1.067-1.043 2.039-1.696 2.922-1.961z" inkscape:connector-curvature="0"/>
          </g>
        </g>
      </g>
      <path id="path600" style="fill-rule:evenodd;fill:#21708a" d="m32.32 62.485c3.758 2.265 7.785 3.383 12.078 3.359 4.59 0 8.602-0.949 12.043-2.84 1.707-0.961 2.957-1.906 3.758-2.84l-15.558-9.043-16.68 7.961c1.012 1.121 2.465 2.254 4.359 3.403z" inkscape:connector-curvature="0"/>
      <g id="g602">
        <g id="g604">
          <g id="g610">
            <path id="path622" style="fill-rule:evenodd;fill:url(#linearGradient612)" d="m44.32 48.684-15.359 8c0.934 1.117 2.266 2.238 4 3.359 3.437 2.266 7.144 3.387 11.117 3.36 4.215-0.028 7.91-0.973 11.082-2.84 1.574-0.961 2.735-1.906 3.481-2.84l-14.321-9.039z" inkscape:connector-curvature="0"/>
          </g>
        </g>
      </g>
      <g id="g624">
        <g id="g626">
          <g id="g632">
            <path id="path644" style="fill-rule:evenodd;fill:url(#linearGradient634)" d="m27 58.563c2 2.055 4.441 3.105 7.32 3.16 2.879 0.027 5.348-0.961 7.399-2.961 2.082-2 3.136-4.437 3.16-7.32 0.055-2.852-0.934-5.305-2.957-7.36-2-2.078-4.442-3.132-7.32-3.16-2.883-0.051-5.348 0.934-7.403 2.961-2.054 2-3.105 4.442-3.16 7.32-0.027 2.852 0.961 5.305 2.961 7.36z" inkscape:connector-curvature="0"/>
          </g>
        </g>
      </g>
      <path id="path646" style="fill-rule:evenodd;fill:#dce6e6" d="m30.199 55.684c1.176 1.199 2.613 1.812 4.321 1.84 1.679 0.027 3.132-0.547 4.359-1.723 1.199-1.172 1.816-2.613 1.84-4.316 0.027-1.707-0.547-3.16-1.719-4.36-1.172-1.203-2.613-1.816-4.32-1.84-1.707-0.054-3.16 0.516-4.36 1.719-1.226 1.172-1.851 2.614-1.879 4.321-0.027 1.703 0.559 3.16 1.758 4.359z" inkscape:connector-curvature="0"/>
      <g id="g648">
        <g id="g650">
          <g id="g656">
            <path id="path668" style="fill-rule:evenodd;fill:url(#linearGradient658)" d="m29.199 52.723-0.398 1.398c0.824-1.546 1.972-2.492 3.437-2.839 0.961-0.211 2.254-0.172 3.883 0.121 1.438 0.293 2.559 0.32 3.359 0.082 0.586-0.188 0.961-0.457 1.122-0.801 0.371-1.043-0.414-1.723-2.364-2.043-2-0.316-3.918 0.043-5.758 1.082-1.601 0.879-2.695 1.879-3.281 3z" inkscape:connector-curvature="0"/>
          </g>
        </g>
      </g>
      <g id="g670">
        <g id="g672">
          <g id="g678">
            <path id="path690" style="fill-rule:evenodd;fill:url(#linearGradient680)" d="m62.121 58.723c2.078-2 3.133-4.441 3.156-7.32 0.055-2.852-0.929-5.321-2.957-7.399-2-2.082-4.441-3.133-7.32-3.16s-5.348 0.957-7.398 2.957c-2.055 2.027-3.11 4.469-3.161 7.32-0.027 2.883 0.957 5.348 2.957 7.403 2 2.051 4.442 3.105 7.321 3.16 2.883 0.023 5.347-0.961 7.402-2.961z" inkscape:connector-curvature="0"/>
          </g>
        </g>
      </g>
      <path id="path692" style="fill-rule:evenodd;fill:#dce6e6" d="m61.121 51.442c0.024-1.707-0.547-3.157-1.723-4.36-1.171-1.226-2.613-1.851-4.32-1.879-1.703-0.027-3.156 0.559-4.359 1.758-1.199 1.176-1.813 2.614-1.84 4.321s0.547 3.16 1.719 4.359c1.175 1.203 2.613 1.816 4.32 1.844 1.707 0.023 3.16-0.547 4.359-1.723 1.2-1.172 1.817-2.613 1.844-4.32z" inkscape:connector-curvature="0"/>
      <g id="g694">
        <g id="g696">
          <g id="g702">
            <path id="path714" style="fill-rule:evenodd;fill:url(#linearGradient704)" d="m49.078 50.282c0.137 0.375 0.508 0.668 1.121 0.882 0.746 0.211 1.856 0.211 3.321 0 1.652-0.242 2.96-0.242 3.918 0 1.468 0.371 2.589 1.344 3.363 2.918 0.051-0.375-0.067-0.851-0.363-1.441-0.559-1.117-1.626-2.145-3.2-3.078-1.812-1.067-3.73-1.469-5.758-1.199-1.945 0.238-2.746 0.879-2.402 1.918z" inkscape:connector-curvature="0"/>
          </g>
        </g>
      </g>
      <path id="path716" style="fill-rule:evenodd;fill:#635a29" d="m44.641 49.442c0.187-1.278 0.734-2.586 1.64-3.918 0.453-0.668 0.879-1.215 1.281-1.641l-2.882-4.879-3 4.84c0.906 0.879 1.668 2.078 2.281 3.598l0.68 2z" inkscape:connector-curvature="0"/>
      <path id="path718" style="fill-rule:evenodd;fill:#2b2438" d="m44.602 49.762 0.078-10.758-3 4.84c0.375 0.371 0.761 0.906 1.16 1.598 0.855 1.386 1.441 2.828 1.762 4.32z" inkscape:connector-curvature="0"/>
      <path id="path720" style="fill-rule:evenodd;fill:#635a29" d="m43.922 46.043c0.293-0.961 0.266-1.453-0.082-1.48-0.215-0.028-0.281 0.199-0.199 0.68 0.078 0.425 0.171 0.695 0.281 0.8z" inkscape:connector-curvature="0"/>
      <path id="path722" style="fill-rule:evenodd;fill:#2b2438" d="m45.359 46.082c0.375-0.984 0.375-1.48 0-1.48-0.187-0.027-0.265 0.199-0.238 0.68 0.027 0.429 0.106 0.695 0.238 0.8z" inkscape:connector-curvature="0"/>
      <path id="path724" style="fill-rule:evenodd;fill:#a49dbd" d="m34.68 34.801c-1.758 0-3.012 1.43-3.758 4.281 0.773-1.757 2.012-2.652 3.719-2.679 1.734-0.051 3.121 0.851 4.16 2.718-0.961-2.906-2.336-4.343-4.121-4.32z" inkscape:connector-curvature="0"/>
      <path id="path726" style="fill-rule:evenodd;fill:#a49dbd" d="m50 28.164c0.773-1.629 2-2.453 3.68-2.48 1.734-0.055 3.121 0.785 4.16 2.519-0.934-2.668-2.293-4-4.078-4-1.762 0.024-3.016 1.344-3.762 3.957v0.004z" inkscape:connector-curvature="0"/>
      <path id="path728" style="fill-rule:evenodd;fill:#a49dbd" d="m33.441 11.282c0.504-1.118 1.332-1.692 2.481-1.719 1.172-0.028 2.105 0.558 2.797 1.762-0.641-1.84-1.559-2.762-2.758-2.762-1.176 0-2.016 0.906-2.52 2.719z" inkscape:connector-curvature="0"/>
      <path id="path730" style="fill-rule:evenodd;fill:#a49dbd" d="m26.281 20.325c0.774-1.629 2.012-2.469 3.719-2.524 1.734-0.023 3.121 0.828 4.16 2.563-0.961-2.696-2.332-4.028-4.121-4-1.758 0-3.012 1.32-3.758 3.961z" inkscape:connector-curvature="0"/>
      <path id="path732" style="fill-rule:evenodd;fill:#887fab" d="m49.762 39.004c0.773-1.84 2.039-2.789 3.797-2.84 1.761-0.054 3.175 0.907 4.242 2.879-0.961-3.015-2.348-4.519-4.16-4.519-1.813 0-3.106 1.492-3.879 4.48z" inkscape:connector-curvature="0"/>
      <path id="path734" style="fill-rule:evenodd;fill:#887fab" d="m40.84 22.325c0.801-1.84 2.066-2.79 3.801-2.84 1.785-0.028 3.214 0.929 4.281 2.879-0.961-3.039-2.36-4.547-4.199-4.52-1.817 0-3.11 1.492-3.883 4.481z" inkscape:connector-curvature="0"/>
      <path id="path736" style="fill-rule:evenodd;fill:#887fab" d="m27.199 32.762c0.426-1.012 1.106-1.531 2.039-1.559 0.961-0.027 1.735 0.493 2.321 1.559-0.532-1.68-1.293-2.508-2.278-2.48-0.988 0-1.679 0.828-2.082 2.48z" inkscape:connector-curvature="0"/>
      <path id="path738" style="fill-rule:evenodd;fill:#887fab" d="m54.359 12.801c0.586-1.305 1.52-1.984 2.801-2.039 1.305-0.027 2.348 0.668 3.117 2.082-0.718-2.16-1.746-3.242-3.078-3.242s-2.277 1.066-2.84 3.199z" inkscape:connector-curvature="0"/>
      <path id="path740" style="fill-rule:evenodd;fill:#887fab" d="m60.441 25.762c0.481-1.012 1.266-1.531 2.36-1.559 1.094-0.027 1.972 0.508 2.64 1.598-0.586-1.68-1.453-2.516-2.601-2.516-1.149 0-1.945 0.825-2.399 2.477z" inkscape:connector-curvature="0"/>
      <path id="path742" style="fill-rule:evenodd;fill:#433473" d="m49.039 35.442c-1.144-3.438-2.801-5.157-4.961-5.157-2.156 0.024-3.691 1.719-4.598 5.079 0.934-2.079 2.426-3.133 4.481-3.161 2.105-0.054 3.801 1.028 5.078 3.239z" inkscape:connector-curvature="0"/>
      <path id="path744" style="fill-rule:evenodd;fill:#433473" d="m40.719 13.403c0.933-2.078 2.441-3.149 4.519-3.2 2.11-0.054 3.789 1.028 5.043 3.239-1.148-3.438-2.801-5.145-4.961-5.117-2.16 0-3.695 1.691-4.601 5.078z" inkscape:connector-curvature="0"/>
      <path id="path746" style="fill-rule:evenodd;fill:#433473" d="m34.801 23.602c-2.055 0-3.508 1.453-4.36 4.359 0.907-1.785 2.332-2.707 4.278-2.758 2-0.027 3.601 0.907 4.801 2.801-1.094-2.961-2.665-4.429-4.719-4.402z" inkscape:connector-curvature="0"/>
      <path id="path748" style="fill-rule:evenodd;fill:#433473" d="m53.719 20.364c0.855-2 2.226-3.016 4.121-3.039 1.918-0.055 3.453 0.972 4.598 3.078-1.04-3.282-2.547-4.907-4.516-4.879-1.977 0-3.375 1.613-4.203 4.84z" inkscape:connector-curvature="0"/>
      <path id="path750" style="fill-rule:evenodd;fill:#433473" d="m57.281 34.684c0.586-0.988 1.332-1.43 2.239-1.32 0.933 0.105 1.601 0.757 2 1.961-0.239-1.817-0.84-2.79-1.797-2.922-0.961-0.133-1.778 0.625-2.442 2.281z" inkscape:connector-curvature="0"/>
      <path id="path752" style="fill-rule:evenodd;fill:#2b2438" d="m38.078 8.602c0.801-0.027 1.414-0.692 1.844-2 0.398-1.199 0.519-2.574 0.359-4.117-0.109-1.469-0.508-2.121-1.203-1.961-0.664 0.133-1.293 0.945-1.879 2.441-0.613 1.465-0.84 2.774-0.679 3.918 0.16 1.172 0.679 1.746 1.558 1.719z" inkscape:connector-curvature="0"/>
      <path id="path754" style="fill-rule:evenodd;fill:#2b2438" d="m35 7.922c0.801 0.082 1.492-0.492 2.078-1.719 0.59-1.148 0.91-2.507 0.961-4.082 0.082-1.464-0.227-2.171-0.918-2.117-0.695 0.078-1.441 0.813-2.242 2.199-0.774 1.387-1.16 2.653-1.16 3.801 0 1.172 0.426 1.813 1.281 1.918z" inkscape:connector-curvature="0"/>
      <path id="path756" style="fill-rule:evenodd;fill:#2b2438" d="m41.719 8.684c0.75-0.188 1.203-0.961 1.359-2.32 0.137-1.282-0.023-2.668-0.476-4.161-0.457-1.386-0.989-1.933-1.602-1.64-0.613 0.265-1.066 1.187-1.359 2.762-0.266 1.57-0.2 2.906 0.199 4 0.398 1.117 1.027 1.57 1.879 1.359z" inkscape:connector-curvature="0"/>
      <path id="path758" style="fill-rule:evenodd;fill:#2b2438" d="m54.281 8.762c0.746-0.238 1.145-1.039 1.199-2.398 0.028-1.282-0.242-2.653-0.8-4.121-0.532-1.36-1.106-1.879-1.719-1.559-0.613 0.348-1 1.32-1.16 2.918-0.133 1.574 0.039 2.894 0.519 3.961 0.481 1.066 1.133 1.465 1.961 1.199z" inkscape:connector-curvature="0"/>
      <path id="path760" style="fill-rule:evenodd;fill:#2b2438" d="m51.16 8.961c0.774-0.16 1.266-0.906 1.481-2.238 0.214-1.254 0.132-2.641-0.243-4.16-0.343-1.442-0.839-2.028-1.476-1.762-0.645 0.242-1.149 1.149-1.524 2.723-0.371 1.547-0.386 2.867-0.039 3.961 0.348 1.144 0.95 1.636 1.801 1.476z" inkscape:connector-curvature="0"/>
      <path id="path762" style="fill-rule:evenodd;fill:#2b2438" d="m57.801 8.082c0.664-0.375 0.879-1.226 0.64-2.558-0.242-1.281-0.8-2.574-1.679-3.883-0.828-1.199-1.496-1.57-2-1.117-0.508 0.453-0.668 1.465-0.485 3.039 0.188 1.601 0.629 2.851 1.321 3.762 0.695 0.957 1.429 1.21 2.203 0.757z" inkscape:connector-curvature="0"/>
      <path id="path764" style="fill-rule:evenodd;fill:#21708a" d="m42.359 7.883c0.614-1.226 0.735-2.64 0.36-4.242-0.184-0.801-0.426-1.481-0.719-2.039 0.426 1.016 0.387 2.48-0.121 4.398-0.211 0.828-0.238 1.453-0.078 1.883 0.16 0.426 0.344 0.426 0.558 0z" inkscape:connector-curvature="0"/>
      <path id="path766" style="fill-rule:evenodd;fill:#054f96" d="m58.121 6.801c0.156-1.359-0.226-2.719-1.16-4.078-0.453-0.695-0.922-1.254-1.402-1.68 0.668 0.692 1.16 2.078 1.48 4.16 0.082 0.852 0.27 1.454 0.563 1.797 0.293 0.325 0.464 0.254 0.519-0.199z" inkscape:connector-curvature="0"/>
      <path id="path768" style="fill-rule:evenodd;fill:#054f96" d="m38.68 7.883c0.828-1.094 1.215-2.453 1.16-4.082-0.028-0.824-0.133-1.547-0.32-2.16 0.214 1.043-0.094 2.48-0.918 4.32-0.348 0.774-0.497 1.387-0.442 1.84 0.055 0.43 0.227 0.453 0.52 0.082z" inkscape:connector-curvature="0"/>
      <path id="path770" style="fill-rule:evenodd;fill:#433473" d="m54.762 7.723c0.504-1.281 0.515-2.707 0.039-4.281-0.242-0.774-0.535-1.426-0.879-1.957 0.289 0.558 0.437 1.355 0.437 2.398 0 0.746-0.066 1.414-0.199 2-0.133 0.824-0.105 1.453 0.078 1.879 0.16 0.402 0.336 0.387 0.524-0.039z" inkscape:connector-curvature="0"/>
      <path id="path772" style="fill-rule:evenodd;fill:#433473" d="m35.84 7.121c0.988-0.933 1.586-2.211 1.801-3.839 0.105-0.825 0.105-1.547 0-2.161 0.054 1.094-0.481 2.454-1.602 4.082-0.48 0.719-0.719 1.305-0.719 1.758 0 0.43 0.172 0.481 0.52 0.16z" inkscape:connector-curvature="0"/>
      <path id="path774" style="fill-rule:evenodd;fill:#635a29" d="m51.961 7.801c0.613-1.226 0.719-2.625 0.316-4.199-0.183-0.801-0.437-1.481-0.757-2.039 0.402 0.879 0.386 2.347-0.04 4.398-0.214 0.828-0.242 1.453-0.082 1.883 0.161 0.399 0.348 0.387 0.563-0.043z" inkscape:connector-curvature="0"/>
    </g>
  </g>
<metadata><rdf:RDF><cc:Work><dc:format>image/svg+xml</dc:format><dc:type rdf:resource="http://purl.org/dc/dcmitype/StillImage"/><cc:license rdf:resource="http://creativecommons.org/licenses/publicdomain/"/><dc:publisher><cc:Agent rdf:about="http://openclipart.org/"><dc:title>Openclipart</dc:title></cc:Agent></dc:publisher></cc:Work><cc:License rdf:about="http://creativecommons.org/licenses/publicdomain/"><cc:permits rdf:resource="http://creativecommons.org/ns#Reproduction"/><cc:permits rdf:resource="http://creativecommons.org/ns#Distribution"/><cc:permits rdf:resource="http://creativecommons.org/ns#DerivativeWorks"/></cc:License></rdf:RDF></metadata></svg>
